<svg width="55" height="33" viewBox="0 0 55 33" fill="none" xmlns="http://www.w3.org/2000/svg">
<path d="M2.10231 4.4H0.262313V2.8H5.70231V4.4H3.86231V14H2.10231V4.4ZM6.55444 2.8H9.16244C10.0691 2.8 10.7304 3.01333 11.1464 3.44C11.5624 3.856 11.7704 4.50133 11.7704 5.376V6.064C11.7704 7.22667 11.3864 7.96267 10.6184 8.272V8.304C11.0451 8.432 11.3438 8.69333 11.5144 9.088C11.6958 9.48267 11.7864 10.0107 11.7864 10.672V12.64C11.7864 12.96 11.7971 13.2213 11.8184 13.424C11.8398 13.616 11.8931 13.808 11.9784 14H10.1864C10.1224 13.8187 10.0798 13.648 10.0584 13.488C10.0371 13.328 10.0264 13.04 10.0264 12.624V10.576C10.0264 10.064 9.9411 9.70667 9.77044 9.504C9.61044 9.30133 9.32777 9.2 8.92244 9.2H8.31444V14H6.55444V2.8ZM8.95444 7.6C9.30644 7.6 9.56777 7.50933 9.73844 7.328C9.91977 7.14667 10.0104 6.84267 10.0104 6.416V5.552C10.0104 5.14667 9.93577 4.85333 9.78644 4.672C9.64777 4.49067 9.42377 4.4 9.11444 4.4H8.31444V7.6H8.95444ZM13.0076 2.8H14.7676V14H13.0076V2.8ZM16.0857 2.8H17.8457V7.52L20.0857 2.8H21.8457L19.7497 6.912L21.8777 14H20.0377L18.5497 9.008L17.8457 10.432V14H16.0857V2.8ZM25.0047 14.16C24.1407 14.16 23.4794 13.9147 23.0207 13.424C22.562 12.9333 22.3327 12.24 22.3327 11.344V5.456C22.3327 4.56 22.562 3.86667 23.0207 3.376C23.4794 2.88533 24.1407 2.64 25.0047 2.64C25.8687 2.64 26.53 2.88533 26.9887 3.376C27.4474 3.86667 27.6767 4.56 27.6767 5.456V11.344C27.6767 12.24 27.4474 12.9333 26.9887 13.424C26.53 13.9147 25.8687 14.16 25.0047 14.16ZM25.0047 12.56C25.6127 12.56 25.9167 12.192 25.9167 11.456V5.344C25.9167 4.608 25.6127 4.24 25.0047 4.24C24.3967 4.24 24.0927 4.608 24.0927 5.344V11.456C24.0927 12.192 24.3967 12.56 25.0047 12.56ZM30.1804 4.4H28.3404V2.8H33.7804V4.4H31.9404V14H30.1804V4.4ZM37.1951 2.8H41.8511V4.4H38.9551V7.52H41.2271V9.12H38.9551V14H37.1951V2.8ZM45.2551 14.16C44.4017 14.16 43.7511 13.92 43.3031 13.44C42.8551 12.9493 42.6311 12.2507 42.6311 11.344V2.8H44.3911V11.472C44.3911 11.856 44.4657 12.1333 44.6151 12.304C44.7751 12.4747 44.9991 12.56 45.2871 12.56C45.5751 12.56 45.7937 12.4747 45.9431 12.304C46.1031 12.1333 46.1831 11.856 46.1831 11.472V2.8H47.8791V11.344C47.8791 12.2507 47.6551 12.9493 47.2071 13.44C46.7591 13.92 46.1084 14.16 45.2551 14.16ZM43.2391 0.415999H44.8071V2.048H43.2391V0.415999ZM45.7031 0.415999H47.2711V2.048H45.7031V0.415999ZM49.1326 2.8H51.7406C52.6472 2.8 53.3086 3.01333 53.7246 3.44C54.1406 3.856 54.3486 4.50133 54.3486 5.376V6.064C54.3486 7.22667 53.9646 7.96267 53.1966 8.272V8.304C53.6232 8.432 53.9219 8.69333 54.0926 9.088C54.2739 9.48267 54.3646 10.0107 54.3646 10.672V12.64C54.3646 12.96 54.3752 13.2213 54.3966 13.424C54.4179 13.616 54.4712 13.808 54.5566 14H52.7646C52.7006 13.8187 52.6579 13.648 52.6366 13.488C52.6152 13.328 52.6046 13.04 52.6046 12.624V10.576C52.6046 10.064 52.5192 9.70667 52.3486 9.504C52.1886 9.30133 51.9059 9.2 51.5006 9.2H50.8926V14H49.1326V2.8ZM51.5326 7.6C51.8846 7.6 52.1459 7.50933 52.3166 7.328C52.4979 7.14667 52.5886 6.84267 52.5886 6.416V5.552C52.5886 5.14667 52.5139 4.85333 52.3646 4.672C52.2259 4.49067 52.0019 4.4 51.6926 4.4H50.8926V7.6H51.5326ZM6.781 21.8H9.469C10.3437 21.8 10.9997 22.0347 11.437 22.504C11.8743 22.9733 12.093 23.6613 12.093 24.568V30.232C12.093 31.1387 11.8743 31.8267 11.437 32.296C10.9997 32.7653 10.3437 33 9.469 33H6.781V21.8ZM9.437 31.4C9.725 31.4 9.94367 31.3147 10.093 31.144C10.253 30.9733 10.333 30.696 10.333 30.312V24.488C10.333 24.104 10.253 23.8267 10.093 23.656C9.94367 23.4853 9.725 23.4 9.437 23.4H8.541V31.4H9.437ZM13.281 21.8H15.041V33H13.281V21.8ZM16.3591 21.8H21.1591V23.4H18.1191V26.36H20.5351V27.96H18.1191V31.4H21.1591V33H16.3591V21.8ZM24.3181 21.8H26.0141L26.7981 30.408H26.8301L27.6621 21.8H29.5821L30.4141 30.408H30.4461L31.2301 21.8H32.7501L31.6141 33H29.4221L28.6221 25.448H28.5901L27.7901 33H25.4541L24.3181 21.8ZM33.6404 21.8H38.4404V23.4H35.4004V26.36H37.8164V27.96H35.4004V31.4H38.4404V33H33.6404V21.8ZM39.4529 21.8H41.2129V31.4H44.1089V33H39.4529V21.8ZM45.0789 23.4H43.2389V21.8H48.6789V23.4H46.8389V33H45.0789V23.4Z" fill="black"/>
</svg>
